ffmpeg started on 2016-11-27 at 01:08:15
Report written to "Output/NVENCh264/results/ffmpeg/crowd_run_2160p50llhq1000k.log"
Command line:
Tools/ffmpeg/ffmpeg -benchmark -y -i Input/y4m/crowd_run_2160p50.y4m -c:v h264_nvenc -preset llhq -b:v 1000k -an Output/NVENCh264/encoded/crowd_run_2160p50llhq1000k.mkv
ffmpeg version N-82227-gdb23fde Copyright (c) 2000-2016 the FFmpeg developers
  built with gcc 5.4.0 (Ubuntu 5.4.0-6ubuntu1~16.04.2) 20160609
  configuration: --prefix=/home/jaroslav/ffmpeg_build --pkg-config-flags=--static --extra-cflags=-I/home/jaroslav/ffmpeg_build/include --extra-ldflags=-L/home/jaroslav/ffmpeg_build/lib --bindir=/home/jaroslav/bin --enable-gpl --enable-libass --enable-libfdk-aac --enable-libfreetype --enable-libmp3lame --enable-libopus --enable-libtheora --enable-libvorbis --enable-libvpx --enable-libx264 --enable-libx265 --enable-nvenc --enable-libmfx --enable-libxvid --enable-libgsm --enable-libopencore-amrnb --enable-version3 --enable-nonfree
  libavutil      55. 35.100 / 55. 35.100
  libavcodec     57. 66.101 / 57. 66.101
  libavformat    57. 57.100 / 57. 57.100
  libavdevice    57.  2.100 / 57.  2.100
  libavfilter     6. 66.100 /  6. 66.100
  libswscale      4.  3.100 /  4.  3.100
  libswresample   2.  4.100 /  2.  4.100
  libpostproc    54.  2.100 / 54.  2.100
Input #0, yuv4mpegpipe, from 'Input/y4m/crowd_run_2160p50.y4m':
  Duration: 00:00:10.00, start: 0.000000, bitrate: 4976642 kb/s
    Stream #0:0: Video: rawvideo (I420 / 0x30323449), yuv420p(progressive), 3840x2160, SAR 1:1 DAR 16:9, 50 fps, 50 tbr, 50 tbn, 50 tbc
[h264_nvenc @ 0x3edd1c0] The variable bitrate rate-control requires the 'qmin' and/or 'qmax' option set.
Output #0, matroska, to 'Output/NVENCh264/encoded/crowd_run_2160p50llhq1000k.mkv':
  Metadata:
    encoder         : Lavf57.57.100
    Stream #0:0: Video: h264 (h264_nvenc) (Main) (H264 / 0x34363248), yuv420p, 3840x2160 [SAR 1:1 DAR 16:9], q=-1--1, 1000 kb/s, 50 fps, 1k tbn, 50 tbc
    Metadata:
      encoder         : Lavc57.66.101 h264_nvenc
    Side data:
      cpb: bitrate max/min/avg: 0/0/1000000 buffer size: 2000000 vbv_delay: -1
Stream mapping:
  Stream #0:0 -> #0:0 (rawvideo (native) -> h264 (h264_nvenc))
Press [q] to stop, [?] for help
frame=   10 fps=0.0 q=0.0 size=       0kB time=00:00:00.00 bitrate=N/A speed=   0x    frame=   15 fps= 14 q=0.0 size=       0kB time=00:00:00.00 bitrate=N/A speed=   0x    frame=   26 fps= 16 q=0.0 size=       0kB time=00:00:00.00 bitrate=N/A speed=   0x    frame=   30 fps= 14 q=0.0 size=       0kB time=00:00:00.00 bitrate=N/A speed=   0x    frame=   46 fps= 17 q=49.0 size=       1kB time=00:00:00.30 bitrate=  19.8kbits/s speed=0.112x    frame=   64 fps= 20 q=49.0 size=       1kB time=00:00:00.66 bitrate=   9.0kbits/s speed=0.206x    frame=   82 fps= 22 q=49.0 size=       1kB time=00:00:01.02 bitrate=   5.8kbits/s speed=0.274x    frame=   91 fps= 19 q=49.0 size=       1kB time=00:00:01.20 bitrate=   5.0kbits/s speed=0.252x    frame=   92 fps= 11 q=49.0 size=       1kB time=00:00:01.22 bitrate=   4.9kbits/s speed=0.145x    frame=   93 fps=8.5 q=49.0 size=       1kB time=00:00:01.24 bitrate=   4.8kbits/s speed=0.114x    frame=  110 fps=9.6 q=49.0 size=       1kB time=00:00:01.58 bitrate=   3.8kbits/s speed=0.139x    frame=  128 fps= 11 q=49.0 size=       1kB time=00:00:01.94 bitrate=   3.1kbits/s speed=0.163x    frame=  146 fps= 12 q=49.0 size=       1kB time=00:00:02.30 bitrate=   2.6kbits/s speed=0.185x    frame=  163 fps= 13 q=49.0 size=       1kB time=00:00:02.64 bitrate=   2.3kbits/s speed=0.204x    frame=  180 fps= 13 q=49.0 size=       1kB time=00:00:02.98 bitrate=   2.0kbits/s speed=0.221x    frame=  197 fps= 14 q=49.0 size=       1kB time=00:00:03.32 bitrate=   1.8kbits/s speed=0.238x    frame=  214 fps= 15 q=49.0 size=       1kB time=00:00:03.66 bitrate=   1.6kbits/s speed=0.253x    frame=  232 fps= 15 q=49.0 size=       1kB time=00:00:04.02 bitrate=   1.5kbits/s speed=0.268x    frame=  250 fps= 16 q=49.0 size=       1kB time=00:00:04.38 bitrate=   1.4kbits/s speed=0.282x    frame=  268 fps= 17 q=49.0 size=       1kB time=00:00:04.74 bitrate=   1.3kbits/s speed=0.295x    frame=  285 fps= 17 q=49.0 size=    2975kB time=00:00:05.08 bitrate=4796.0kbits/s speed=0.307x    frame=  303 fps= 18 q=49.0 size=    2975kB time=00:00:05.44 bitrate=4478.7kbits/s speed=0.319x    frame=  321 fps= 18 q=49.0 size=    2975kB time=00:00:05.80 bitrate=4200.8kbits/s speed=0.33x    frame=  339 fps= 19 q=49.0 size=    2975kB time=00:00:06.16 bitrate=3955.3kbits/s speed=0.34x    frame=  357 fps= 19 q=49.0 size=    2975kB time=00:00:06.52 bitrate=3736.9kbits/s speed=0.35x    frame=  375 fps= 20 q=49.0 size=    2975kB time=00:00:06.88 bitrate=3541.4kbits/s speed=0.359x    frame=  393 fps= 20 q=49.0 size=    2975kB time=00:00:07.24 bitrate=3365.4kbits/s speed=0.368x    frame=  411 fps= 20 q=49.0 size=    2975kB time=00:00:07.60 bitrate=3206.0kbits/s speed=0.377x    frame=  429 fps= 21 q=49.0 size=    2975kB time=00:00:07.96 bitrate=3061.0kbits/s speed=0.385x    frame=  447 fps= 21 q=49.0 size=    2975kB time=00:00:08.32 bitrate=2928.6kbits/s speed=0.392x    frame=  465 fps= 21 q=49.0 size=    2975kB time=00:00:08.68 bitrate=2807.1kbits/s speed= 0.4x    frame=  483 fps= 22 q=49.0 size=    2975kB time=00:00:09.04 bitrate=2695.3kbits/s speed=0.407x    frame=  500 fps= 22 q=49.0 size=    2975kB time=00:00:09.38 bitrate=2597.7kbits/s speed=0.412x    frame=  500 fps= 22 q=49.0 Lsize=    6185kB time=00:00:09.98 bitrate=5076.3kbits/s speed=0.433x    
video:6181kB audio:0kB subtitle:0kB other streams:0kB global headers:0kB muxing overhead: 0.068637%
bench: utime=1.152s
bench: maxrss=1396728kB
